<?xml version="1.0" encoding="utf-8" ?><svg xmlns="http://www.w3.org/2000/svg" xmlns:xlink="http://www.w3.org/1999/xlink" width="485" height="485" viewBox="0 0 485 485"><path fill="#353535" d="M0 0L485 0L485 485L0 485L0 0Z"/><path fill="#F79C39" d="M176.21 88.3278C182.705 89.5012 189.341 90.0533 195.795 91.0245C208.723 92.9694 225.727 97.3412 237.2 103.68C228.531 103.424 219.292 103.288 210.669 104.451C213.167 105.33 216.637 107.161 219.116 108.284C233.325 114.723 251.853 126.447 261.941 138.505C258.754 137.677 254.661 136.074 251.213 135.107C245.644 133.545 241.763 133.018 236.122 132.208C238.934 134.697 241.604 137.342 244.121 140.129C248.49 144.966 259.019 157.163 261.408 163.507C261.815 164.585 261.44 176.995 261.328 179.222L261.264 180.149C261.04 194.432 262.092 209.135 261.998 223.5C261.903 238.103 261.448 252.975 261.776 267.551C234.234 283.952 217.226 303.614 204.323 332.748C185.594 319.284 157.251 309.442 134.071 309.951C136.848 304.103 142.729 298.696 147.219 294.094C145.489 272.394 152.743 253.911 166.07 237.017C177.483 222.549 191.454 208.764 197.376 190.985C198.215 188.467 198.707 185.39 199.561 183.038C199.643 181.94 199.645 181.896 200.123 180.921C200.565 177.685 198.818 166.954 197.721 163.878C197.838 168.538 198.226 173.798 197.307 178.399C193.661 196.655 180.786 210.386 168.784 223.727L161.12 232.204C159.795 233.696 158.284 235.652 156.88 237.014C154.15 233.029 150.31 230.787 145.522 230.464C144.29 226.983 143.939 223.831 142.892 220.434L142.835 219.753C143.254 219.098 143.414 218.923 143.607 218.151C141.88 215.852 129.275 217.532 126.514 218.188C129.552 215.043 135.419 212.184 139.455 210.133C154.943 202.263 171.057 193.932 177.719 176.643C179.93 170.904 180.256 163.152 177.452 157.569C173.648 149.995 166.74 147.916 159.322 145.389C166.743 144.441 173.356 143.645 179.998 139.765C182.698 138.188 185.156 136.379 187.842 134.788C177.055 134.425 166.817 133.208 157.297 127.897C159.477 127.428 161.65 126.924 163.814 126.386C177.395 122.979 185.279 115.458 192.21 103.852C180.183 108.719 168.339 110.234 155.374 108.19C154.558 108.062 154.212 107.986 153.85 107.423C153.906 107.143 153.968 106.798 154.095 106.542C158.336 98.0021 168.027 92.011 176.21 88.3278Z"/><path fill="#353535" d="M222.696 218.192C223.294 222.575 222.53 227.932 221.954 232.291C221.778 233.627 220.694 237.456 221.212 238.457C221.757 238.533 222.132 238.537 222.68 238.555C223.163 238.185 223.368 238.078 223.939 237.868C222.049 240.739 222.85 249.872 222.929 253.498C223.011 258.726 223.044 263.954 223.028 269.183C223.029 274.731 223.595 277.795 220.065 282.519C218.154 285.077 215.673 288.531 214.115 291.277C210.465 289.208 195.806 282.688 191.736 281.588L191.749 281.194C191.849 277.6 190.876 273.357 190.709 269.629C190.235 259.054 195.909 246.082 201.983 237.47C201.968 242.614 201.878 248.876 203.173 253.871C206.068 247.716 207.656 243.534 211.093 237.591C214.219 232.185 220.398 223.522 222.696 218.192Z"/><defs><linearGradient id="gradient_0" gradientUnits="userSpaceOnUse" x1="227.78165" y1="219.0748" x2="234.70334" y2="225.162"><stop offset="0" stop-color="#0B0000"/><stop offset="1" stop-color="#383E35"/></linearGradient></defs><path fill="url(#gradient_0)" d="M233.905 217.444C234.763 215.601 238.838 205.859 239.772 205.147C241.153 206.684 239.709 211.171 239.164 212.954C236.348 222.184 231.314 231.185 224.143 237.729C224.075 237.775 224.007 237.822 223.939 237.868C223.368 238.078 223.163 238.185 222.68 238.555C222.132 238.537 221.757 238.533 221.212 238.457C223.963 235.128 232.967 222.14 233.331 218.38L232.75 218.17C233.349 217.913 233.364 217.843 233.905 217.444Z"/><path fill="#021026" d="M249.631 183.485C248.579 183.675 249.019 183.783 248.22 183.402C245.882 179.975 247.073 173.587 245.787 169.327C251.68 171.895 254.421 173.824 259.235 177.83C255.69 179.494 252.903 181.36 249.631 183.485Z"/><path fill="#040301" d="M203.611 184.151C205.643 185.72 207.075 186.978 209.635 187.741C213.609 188.925 215.989 186.405 216.797 192.1C217.069 194.016 217.116 196.363 217.331 198.321C219.116 200.699 221.617 202.611 223.512 205.202C225.942 208.527 227.459 211.993 230.343 214.894C230.02 215.562 229.959 215.808 229.382 216.293C226.698 213.676 223.371 205.89 221.368 204.2C213.768 197.787 217.016 198.193 215.14 190.125L215.062 189.801C208.004 188.277 209.178 190.203 202.318 185.088C202.85 184.595 203.006 184.523 203.611 184.151Z"/><path fill="#8C5E40" d="M259.235 177.83C259.935 178.308 260.608 178.775 261.328 179.222L261.264 180.149C258.212 181.716 253.451 184.82 250.056 183.631L249.631 183.485C252.903 181.36 255.69 179.494 259.235 177.83Z"/><path fill="#1E1D15" d="M200.123 180.921C201.365 182.214 202.235 182.99 203.611 184.151C203.006 184.523 202.85 184.595 202.318 185.088L199.561 183.038C199.643 181.94 199.645 181.896 200.123 180.921Z"/><path fill="#1F0902" d="M230.343 214.894C231.516 215.765 232.703 216.615 233.905 217.444C233.364 217.843 233.349 217.913 232.75 218.17C231.16 217.626 230.666 217.38 229.382 216.293C229.959 215.808 230.02 215.562 230.343 214.894Z"/><path fill="#F79C39" d="M112.907 90.9074C114.488 89.1396 115.99 87.2906 117.585 85.5125C128.08 73.8297 143.155 69.6515 155.386 60.3603C163.435 54.2452 168.281 47.3056 174.26 39.4708C171.936 49.282 162.499 66.3198 153.792 71.2068C143.935 76.739 137.963 77.2135 130.746 87.9539C131.125 88.34 131.374 88.558 131.688 89.0028C136.152 85.7182 140.878 82.8065 145.819 80.2973C147.903 79.2611 150.957 78.199 152.798 77.1034C153.391 76.6247 153.063 76.8213 154.01 76.77L155.788 79.5256L154.678 80.5011C156.758 83.0231 158.744 84.8226 159.344 87.9971C159.488 89.0028 159.638 90.3518 159.883 91.308C159.385 92.1966 156.743 94.5369 155.899 95.2326C151.353 98.9826 149.733 102.811 147.572 108.233C144.677 108.125 141.637 107.922 138.797 107.325C140.965 108.786 143.365 110.521 145.816 111.426C158.158 115.985 169.9 113.726 182.158 110.96C174.375 117.939 168.372 121.173 157.893 123.3C155.169 123.853 150.32 124.715 147.855 125.722C156.231 134.947 164.249 136.082 175.656 137.777C165.047 141.455 154.131 140.601 143.007 139.702C146.176 146.658 152.028 147.153 158.451 151.218C148.962 151.1 147.529 151.116 139.216 155.699C143.998 158.261 147.889 160.708 151.179 165.187C138.921 162.467 125.735 162.488 114.793 169.402C108.404 173.439 102.685 180.511 100.75 187.911C99.5306 192.572 103.018 195.082 106.233 197.669C100.272 198.304 95.6226 198.085 89.7123 197.623C81.9298 197.014 77.045 194.417 73.1488 187.485C72.5264 186.377 71.5425 184.926 71.658 183.597C73.2464 182.874 79.9314 187.467 81.4585 185.045C81.1345 182.923 79.0503 178.548 78.3133 175.163C80.0122 176.475 87.4378 182.527 89.2867 179.637C89.5494 177.559 87.7155 174.835 86.8194 172.711C89.1297 173.73 90.833 174.49 93.2552 175.262C97.6289 171.079 102.803 162.913 106.513 157.845C107.657 156.281 108.84 153.717 110.044 152.094C111.913 152.879 113.864 153.763 115.808 154.302C114.89 142.026 116.864 135.225 126.635 127.362L126.177 127.207C126.523 126.928 126.867 126.647 127.21 126.364L127.131 125.889C126.463 126.283 126.205 126.479 125.44 126.683L125.271 126.202C116.303 130.764 112.781 136.514 111.15 146.177C100.15 141.988 91.8316 142.987 81.181 147.768C80.2656 148.176 79.3611 148.608 78.4683 149.064L77.6839 146.904L77.0094 147.409L76.3747 147.229C76.1484 146.389 75.7296 144.872 75.2798 144.141C72.7764 140.072 70.8006 135.524 67.5652 131.978C66.7138 131.044 65.9171 130.029 65.2585 129.016C65.789 128.285 65.445 128.528 66.3472 128.292C67.066 126.708 73.8567 123.61 75.552 121.767C78.1566 118.935 77.9275 112.784 80.5082 110.313C83.0427 107.887 87.9572 105.685 91.1523 103.603C98.1116 99.0657 101.738 93.3484 106.479 86.7512C108.817 89.4147 109.528 89.8932 112.907 90.9074Z"/><path fill="#040301" d="M65.2585 129.016C65.789 128.285 65.445 128.528 66.3472 128.292C71.764 135.167 74.2077 138.613 77.6839 146.904L77.0094 147.409L76.3747 147.229C76.1484 146.389 75.7296 144.872 75.2798 144.141C72.7764 140.072 70.8006 135.524 67.5652 131.978C66.7138 131.044 65.9171 130.029 65.2585 129.016Z"/><path fill="#1F0902" d="M136.263 122.214C133.417 124.073 129.777 125.45 126.635 127.362L126.177 127.207C126.523 126.928 126.867 126.647 127.21 126.364L127.131 125.889C126.463 126.283 126.205 126.479 125.44 126.683L125.271 126.202C128.579 124.494 132.6 122.899 136.263 122.214Z"/><path fill="#1F0902" d="M152.798 77.1034C153.391 76.6247 153.063 76.8213 154.01 76.77L155.788 79.5256L154.678 80.5011C153.847 79.3434 153.177 78.4871 152.798 77.1034Z"/><path fill="#48310C" d="M130.746 87.9539C131.125 88.34 131.374 88.558 131.688 89.0028C130.429 89.8679 129.026 91.3139 127.899 92.4031C128.914 90.5594 129.499 89.6568 130.746 87.9539Z"/><path fill="#353535" d="M111.328 107.057L111.374 107.341C105.565 112.774 107.366 115.009 103.981 120.379C101.733 123.944 91.6733 123.986 87.3809 124.006L87.4115 123.635C90.6999 121.26 92.956 118.615 95.9883 115.963C100.537 111.985 105.881 109.5 111.328 107.057Z"/><path fill="#1F0902" d="M127.113 132.863C127.637 133.018 127.452 132.919 127.842 133.332C127.784 134.288 127.05 135.092 126.476 135.907L125.987 135.747L125.754 135.268C125.943 134.308 126.528 133.676 127.113 132.863Z"/><path fill="#F79C39" d="M256.098 113.509C270.509 107.629 284.645 101.099 298.463 93.9372L316.139 84.7039C319.292 83.0341 322.803 80.8833 326.054 79.6077C310.474 104.144 311.377 115.574 311.199 143.865L311.255 198.722C311.271 207.059 311.584 217.39 311.196 225.517C309.824 227.705 308.406 229.256 306.58 231.073C304.284 229.208 298.865 225.152 296.295 223.859C296.085 224.567 296.054 225.011 295.459 225.422C290.962 221.995 286.975 220.314 282.248 217.54C280.952 216.78 280.5 212.804 279.373 211.419C277.001 208.504 274.051 206.401 271.54 203.566C271.358 202.78 271.317 202.822 271.573 202.071C270.94 199.74 271.271 190.117 271.242 187.031L270.995 160.921C270.973 153.994 271.111 143.422 270.028 136.773C269.411 132.981 268.232 129.303 266.53 125.859C264.184 121.104 260.006 117.063 256.098 113.509Z"/><path fill="#040301" d="M271.573 202.071C274.466 204.835 277.86 207.69 280.272 210.826C281.633 212.595 281.432 215.636 282.901 216.799C284.975 218.443 288.578 219.659 291.017 220.884C293.009 221.885 294.42 222.691 296.295 223.859C296.085 224.567 296.054 225.011 295.459 225.422C290.962 221.995 286.975 220.314 282.248 217.54C280.952 216.78 280.5 212.804 279.373 211.419C277.001 208.504 274.051 206.401 271.54 203.566C271.358 202.78 271.317 202.822 271.573 202.071Z"/><path fill="#F79C39" d="M335.729 284.095L360.006 289.187C381.104 293.697 393.467 295.264 412.783 282.474C415.027 280.963 417.231 279.394 419.393 277.769C412.259 293.4 400.29 309.913 389.817 323.623C386.039 328.569 381.151 333.599 377.658 338.53C359.841 328.101 339.315 323.204 319.131 319.491C317.88 314.169 317.323 311.082 317.447 305.599C317.452 305.13 317.44 301.413 317.771 301.306C319.217 300.83 321.874 301.11 322.867 299.783C325.785 295.882 326.282 293.248 330.039 289.798C332.699 287.718 333.672 286.758 335.729 284.095Z"/><path fill="#F79C39" d="M132.094 392.284C134.045 392.645 138.024 392.484 140.141 392.431C141.026 396.004 142.531 400.278 143.711 403.816L150.744 424.355C153.192 431.544 155.552 439.977 158.763 446.811C159.741 448.893 162.693 450.993 164.579 452.429L142.917 452.592C145.251 449.657 148.15 448.784 146.915 444.684C145.837 441.109 144.574 437.469 143.649 433.867C137.425 433.757 131.143 433.943 124.915 433.773C123.672 438.341 121.904 442.692 120.83 447.377C121.835 448.603 124.46 450.943 125.755 452.319C120.428 452.452 115.099 452.508 109.771 452.489C106.005 452.497 101.321 452.683 97.7205 452.034C94.7184 449.369 89.7898 440.026 87.5581 436.172C85.7744 433.041 83.8538 429.99 81.8018 427.028C80.3897 427.293 78.2387 427.245 76.7389 427.257C76.7194 432.623 76.6992 438.004 76.726 443.374C76.7491 448.002 78.9658 449.212 82.2543 452.281L76.9375 452.271C71.7109 452.271 66.291 452.198 61.0811 452.359C67.9734 446.155 66.8121 447.744 66.7237 438.151L66.6049 424.757C66.5674 416.642 66.7267 408.428 66.6136 400.314C66.5653 396.844 63.8185 394.975 61.3077 392.728C67.8681 392.41 74.9876 392.829 81.7304 392.596C96.6454 392.08 107.09 400.401 101.342 415.88C99.8472 419.907 95.303 423.036 91.16 424.469C93.0795 427.278 94.9555 430.115 96.7872 432.981C99.4188 437.184 104.364 447.13 108.565 449.514C112.372 451.675 115.66 440.12 116.45 437.802L121.191 423.684C124.802 413.128 128.782 403.048 132.094 392.284Z"/><path fill="#353535" d="M76.7492 398.774C86.385 398.93 94.1371 399.625 92.3389 413.012C92.0808 414.933 90.921 416.617 89.6587 418.072C85.7778 421.846 81.8369 421.262 76.8033 421.244C76.5617 414.089 76.7485 405.99 76.7492 398.774Z"/><path fill="#353535" d="M134.523 403.65C134.574 403.709 141.352 425.683 142.117 428.003C139.664 428.188 137.449 428.215 134.998 428.244L126.91 428.192C128.479 422.18 130.944 416.264 132.566 410.245C133.157 408.049 133.823 405.814 134.523 403.65Z"/><path fill="#F79C39" d="M135.347 255.788C137.475 256.669 141.23 258.678 143.254 259.892C142.734 260.826 143.092 260.504 142.217 260.968L142.403 261.108C142.627 262.001 141.06 266.378 140.722 267.542C138.464 275.304 138.216 282.993 137.866 290.973C115.292 312.301 123.534 339.401 134.736 363.727C129.954 360.308 125.473 356.487 121.341 352.305C102.084 332.779 92.1949 305.645 98.9724 278.672C100.232 273.66 103.112 264.593 106.875 260.896C106.524 260.418 106.168 259.943 105.808 259.472C107.588 259.039 109.237 258.769 111.066 258.717C116.661 258.761 121.045 259.354 126.494 260.879C129.225 259.09 132.328 256.876 135.347 255.788Z"/><path fill="#040301" d="M135.347 255.788C137.475 256.669 141.23 258.678 143.254 259.892C142.734 260.826 143.092 260.504 142.217 260.968C139.932 259.618 137.627 258.303 135.302 257.023C132.308 258.402 129.296 260.96 126.992 261.836C122.481 261.518 118.377 260.647 113.436 260.416C112.4 259.802 111.42 260.521 110.324 259.857C110.426 259.217 110.582 259.195 111.066 258.717C116.661 258.761 121.045 259.354 126.494 260.879C129.225 259.09 132.328 256.876 135.347 255.788Z"/><path fill="#1E1D15" d="M105.808 259.472C107.588 259.039 109.237 258.769 111.066 258.717C110.582 259.195 110.426 259.217 110.324 259.857C111.42 260.521 112.4 259.802 113.436 260.416C111.34 260.43 108.861 260.338 106.875 260.896C106.524 260.418 106.168 259.943 105.808 259.472Z"/><path fill="#F79C39" d="M240.167 391.597C268.571 389.433 274.754 423.752 262.295 443.374C258.604 449.187 251.898 452.149 245.247 453.223C228.808 453.996 219.321 445.547 217.071 429.101C214.813 412.594 221.47 393.726 240.167 391.597Z"/><path fill="#353535" d="M240.63 398.054C250.325 397.56 255.11 404.819 256.724 413.41C258.739 424.14 258.53 443.909 244.912 446.709C234.707 447.844 229.571 439.791 228.27 430.793C226.726 420.121 226.692 400.279 240.63 398.054Z"/><path fill="#F79C39" d="M397.712 391.605C400.446 391.434 403.692 391.773 406.305 392.501C429.995 399.103 430.379 443.116 408.066 451.548C404.997 452.708 402.306 453.14 399.062 453.377C393.744 453.874 386.803 451.681 382.72 448.196C369.778 437.149 369.69 412.462 380.263 399.835C384.896 394.301 390.683 392.178 397.712 391.605Z"/><path fill="#353535" d="M397.15 398.082C407.718 397.525 412.273 407.187 413.21 416.248C414.342 427.19 414.023 445.028 400.076 446.874C388.975 447.198 385.204 437.707 383.992 428.269C382.629 417.652 383.478 399.826 397.15 398.082Z"/><path fill="#F79C39" d="M6.25974 392.594C14.0696 392.292 22.3778 392.517 30.1182 392.648C48.8469 392.966 58.0555 407.513 56.3988 425.119C55.5149 434.512 53.4286 440.471 46.2794 446.692C38.0037 452.449 31.8418 452.246 22.1092 452.257C16.9971 452.263 11.1152 452.181 6.03058 452.383C12.7026 446.024 11.3028 446.077 11.2709 437.143L11.2126 421.505L11.161 407.639C11.1442 404.664 11.1564 401.379 10.7458 398.428C10.4344 396.189 6.76608 394.383 6.25974 392.594Z"/><path fill="#353535" d="M21.3373 399.015C27.5676 399.279 33.8554 398.428 38.9136 402.909C48.1578 411.097 47.6806 432.09 40.3193 440.989C34.8503 446.804 28.8033 445.896 21.4214 445.785C21.5256 438.132 21.3174 430.399 21.3296 422.737C21.3421 414.826 21.4366 406.926 21.3373 399.015Z"/><path fill="#F79C39" d="M312.635 280.296C316.457 280.545 320.637 281.529 324.424 282.24C327.114 282.745 330.135 283.217 332.754 283.889C331.264 286.129 330.584 286.799 329.021 288.766L330.039 289.798C326.282 293.248 325.785 295.882 322.867 299.783C321.874 301.11 319.217 300.83 317.771 301.306C317.44 301.413 317.452 305.13 317.447 305.599L316.996 307.431L316.131 307.522L315.944 308.176C315.826 307.49 315.774 307.122 315.72 306.41C315.075 309.314 315.323 315.792 315.417 318.87C292.502 314.674 268.361 314.908 245.212 316.757C246.521 315.697 248.756 314.337 250.256 313.223C254.165 310.318 258.004 307.569 262.1 304.924C266.825 301.872 272.651 299.004 276.851 295.352C280.235 292.408 282.719 287.9 285.545 284.551L285.683 284.39C285.927 283.609 286.111 283.514 286.696 282.959C288.107 282.972 290.099 282.929 291.429 283.143C293.92 283.266 295.747 283.649 298.185 284.09C300.77 284.559 302.865 285.621 304.945 283.754L305.128 284.77L306.523 283.839C308.476 282.625 310.558 281.246 312.635 280.296Z"/><path fill="#040301" d="M329.021 288.766L330.039 289.798C326.282 293.248 325.785 295.882 322.867 299.783C321.874 301.11 319.217 300.83 317.771 301.306C317.44 301.413 317.452 305.13 317.447 305.599L316.996 307.431L316.131 307.522L315.944 308.176C315.826 307.49 315.774 307.122 315.72 306.41C315.777 304.448 315.982 302.174 316.071 300.148C314.53 298.406 312.802 296.561 311.5 294.655C314.528 296.497 315.657 297.84 318.105 300.365L321.544 300.276C323.69 297.814 323.939 295.323 325.68 292.617C326.574 291.227 327.866 289.961 329.021 288.766Z"/><defs><linearGradient id="gradient_1" gradientUnits="userSpaceOnUse" x1="297.63889" y1="285.0416" x2="297.88046" y2="283.32074"><stop offset="0" stop-color="#000001"/><stop offset="1" stop-color="#200702"/></linearGradient></defs><path fill="url(#gradient_1)" d="M291.429 283.143C293.92 283.266 295.747 283.649 298.185 284.09C300.77 284.559 302.865 285.621 304.945 283.754L305.128 284.77C301.81 286.668 296.123 285.022 291.651 284.804C290.967 284.041 290.902 284.234 290.935 283.495L291.429 283.143Z"/><path fill="#1E1D15" d="M286.696 282.959C288.107 282.972 290.099 282.929 291.429 283.143L290.935 283.495C290.902 284.234 290.967 284.041 291.651 284.804C289.411 284.779 287.921 284.643 285.683 284.39C285.927 283.609 286.111 283.514 286.696 282.959Z"/><path fill="#F79C39" d="M141.44 219.758C142.293 219.877 142.231 219.871 142.892 220.434C143.939 223.831 144.29 226.983 145.522 230.464C150.31 230.787 154.15 233.029 156.88 237.014L156.157 237.794C155.572 239.218 150.685 245.692 149.354 247.881C146.759 252.144 145.399 255.657 143.254 259.892C141.23 258.678 137.475 256.669 135.347 255.788C132.328 256.876 129.225 259.09 126.494 260.879C121.045 259.354 116.661 258.761 111.066 258.717C109.237 258.769 107.588 259.039 105.808 259.472C99.7149 261.268 94.7942 265.496 89.9946 269.467C91.6332 263.974 95.5851 256.611 98.7994 251.988C106.851 240.408 118.24 231.623 130.492 224.872C133.733 223.087 137.786 220.443 141.44 219.758Z"/><path fill="#040301" d="M141.44 219.758C142.293 219.877 142.231 219.871 142.892 220.434C143.939 223.831 144.29 226.983 145.522 230.464C150.31 230.787 154.15 233.029 156.88 237.014L156.157 237.794C151.421 232.956 151.659 232.533 144.802 231.277C143.698 229.018 141.334 222.14 141.44 219.758Z"/><path fill="#F79C39" d="M308.197 392.639C312.594 392.24 321.973 392.503 326.486 392.641C324.805 394.032 321.159 396.894 320.952 399.033C320.425 404.49 320.68 410.5 320.685 415.981L320.634 452.444C318.557 452.185 315.839 452.503 313.754 452.713C313.016 451.96 310.363 447.525 309.671 446.405L300.561 431.621C295.85 424.085 289.372 414.991 285.082 407.551L285.29 433.499C285.333 437.144 285.272 444.041 285.866 447.332C287.151 448.906 289.998 450.983 291.691 452.293C285.215 452.4 279.062 452.5 272.594 452.415C274.699 450.692 276.496 449.386 278.228 447.278C278.627 439.341 278.13 429.14 278.283 421.039C278.36 416.982 278.589 400.848 277.898 397.799C276.138 395.716 274.151 394.417 271.944 392.806L277.862 392.631C281.048 392.517 284.237 392.525 287.423 392.655C294.82 406.729 305.788 421.44 313.798 435.865C313.548 424.37 313.887 412.899 313.549 401.404C313.404 396.499 311.805 395.931 308.197 392.639Z"/><path fill="#F79C39" d="M455.226 391.84C461.527 391.096 468.524 392.306 474.684 393.586C473.889 398.932 473.107 405.275 471.597 410.366C467.291 402.829 469.213 397.009 457.048 398.105C437.38 399.876 436.314 432.93 449.025 443.12C454.114 447.199 459.578 447.004 465.684 446.348C465.821 442.185 465.941 431.373 465.51 427.668C464.036 425.724 462.341 424.937 461.067 423.334L461.277 422.961C467.476 423.031 474.426 422.955 480.633 422.883C479.499 424.3 476.256 427.148 476.1 428.727C475.467 435.142 475.611 443.692 475.86 450.037C463.963 453.602 451.304 455.968 440.592 447.841C427.319 437.771 426.845 414.347 436.486 401.717C441.104 395.667 447.922 392.84 455.226 391.84Z"/><path fill="#F79C39" d="M188.148 391.844C193.777 390.948 202.058 392.618 207.704 393.617C206.741 399.049 205.987 405.183 204.78 410.512C202.786 407.148 201.639 402.119 199.14 399.739C197.219 397.908 191.578 397.793 188.938 398.143C184.621 398.74 180.726 401.051 178.132 404.554C170.906 414.135 171.808 435.848 182.143 443.464C187.306 447.268 192.508 447.348 198.607 446.438C198.907 442.149 198.782 432.162 198.405 427.771C197.19 426.196 195.163 424.715 193.574 423.483C194.659 422.705 210.122 423.136 213.18 422.973C213.017 423.132 212.855 423.293 212.694 423.455C211.692 424.472 209.033 427.318 208.852 428.536C207.943 434.673 208.317 444.101 208.335 450.331C204.293 451.046 200.345 452.276 196.189 452.91C179 455.595 164.78 445.773 162.923 428.106C161.023 410.029 168.849 394.033 188.148 391.844Z"/><path fill="#F79C39" d="M271.54 203.566C274.051 206.401 277.001 208.504 279.373 211.419C280.5 212.804 280.952 216.78 282.248 217.54C286.975 220.314 290.962 221.995 295.459 225.422C298.606 228.428 301.091 229.976 304.437 233.558C302.492 236.997 299.245 242.119 296.41 244.795C294.889 246.231 291.668 247.98 290.457 249.711C288.253 252.862 287.05 256.63 284.952 259.949L284.728 260.299C281.232 261.549 276.208 261.483 271.464 263.049C271.304 257.756 271.1 204.728 271.54 203.566Z"/><path fill="#F79C39" d="M48.168 128.493C48.6684 130.111 49.054 131.843 50.5104 132.856C54.4875 135.624 61.9563 129.128 65.2585 129.016C65.9171 130.029 66.7138 131.044 67.5652 131.978C70.8006 135.524 72.7764 140.072 75.2798 144.141C75.7296 144.872 76.1484 146.389 76.3747 147.229C77.0276 150.334 76.615 154.43 77.1989 158.114C75.6245 157.147 72.7773 154.935 71.1858 153.769C67.5573 160.282 68.9975 162.084 70.9022 169.349C66.5908 167.366 63.1755 164.039 59.4087 162.047C56.1371 160.318 56.8154 170.486 57.0412 172.263C49.5562 168.126 46.0759 165.675 41.9596 157.76C40.3804 154.724 39.3037 152.53 38.3183 149.172C40.1552 141.816 44.2423 134.901 48.168 128.493Z"/><path fill="#040301" d="M58.9636 138.284C59.0028 138.396 59.0421 138.509 59.0814 138.621C57.8864 139.44 55.4288 141.401 54.4565 142.16C50.3626 145.355 49.8888 146.996 48.6342 151.582L48.4261 151.394C47.8553 149.91 48.726 145.388 49.2155 143.775L49.3396 143.661C51.5613 141.574 56.108 139.573 58.9636 138.284Z"/><path fill="#F79C39" d="M286.696 282.959C287.207 279.968 289.563 275.443 289.653 272.558C289.867 267.72 288.562 262.416 289.168 257.63C289.869 252.099 294.884 249.247 298.212 245.659C302.732 240.786 305.716 236.465 311.148 232.483C311.616 237.977 311.456 244.401 311.464 249.983L311.468 276.511C309.781 278.959 308.04 280.275 306.201 282.467L306.592 282.889C306.439 283.536 306.357 283.353 306.523 283.839L305.128 284.77L304.945 283.754C302.865 285.621 300.77 284.559 298.185 284.09C295.747 283.649 293.92 283.266 291.429 283.143C290.099 282.929 288.107 282.972 286.696 282.959Z"/><path fill="#1F0902" d="M306.201 282.467L306.592 282.889C306.439 283.536 306.357 283.353 306.523 283.839L305.128 284.77L304.945 283.754C305.134 283.347 305.825 282.811 306.201 282.467Z"/><path fill="#F79C39" d="M341.924 392.62C345.477 392.526 348.312 392.556 351.828 392.875C349.902 394.7 346.753 397.111 346.504 399.867C346.042 405 346.197 410.316 346.194 415.486C346.148 425.672 346.201 435.859 346.35 446.044C350.36 445.923 358.349 446.295 361.892 445.733C364.433 443.481 367.021 436.745 369.628 436.627L370.012 437.075C370.507 439.066 369.111 449.522 368.652 451.966C368.55 452.103 368.448 452.239 368.346 452.375L330.543 452.342C332.372 450.728 334.344 449.099 335.9 447.234C336.331 445.372 336.281 443.309 336.273 441.399C336.216 427.895 336.343 414.387 336.214 400.885C336.204 399.838 335.996 398.713 335.776 397.689C334.134 395.676 332.685 394.567 330.662 392.933C333.957 392.657 338.531 392.692 341.924 392.62Z"/><path fill="#F79C39" d="M215.05 38.4214C207.474 59.8709 193.754 75.113 172.692 84.0209C171.094 84.6964 161.591 90.2614 161.442 90.2694C161.099 91.0144 161.16 91.0285 160.498 91.4831C159.955 91.4494 160.131 91.5688 159.883 91.308C159.638 90.3518 159.488 89.0028 159.344 87.9971C158.744 84.8226 156.758 83.0231 154.678 80.5011L155.788 79.5256L154.01 76.77L154.265 76.667C160.716 74.1111 168.126 72.6807 174.564 70.2097C186.98 65.4436 198.848 56.8688 207.879 47.1289C210.56 44.2375 212.738 40.9099 215.05 38.4214Z"/><path fill="#040301" d="M155.788 79.5256C157.193 81.6298 160.029 83.9586 160.23 85.2209C160.17 86.2104 160.355 87.6624 159.992 88.2777L159.344 87.9971C158.744 84.8226 156.758 83.0231 154.678 80.5011L155.788 79.5256Z"/><path fill="#1E1D15" d="M160.23 85.2209C160.504 86.6023 161.322 89.3064 161.442 90.2694C161.099 91.0144 161.16 91.0285 160.498 91.4831C159.955 91.4494 160.131 91.5688 159.883 91.308C159.638 90.3518 159.488 89.0028 159.344 87.9971L159.992 88.2777C160.355 87.6624 160.17 86.2104 160.23 85.2209Z"/><path fill="#F79C39" d="M284.85 262.861C285.156 262.949 285.337 262.921 285.389 263.204C285.956 266.254 287.051 272.203 286.164 275.094C285.57 277.033 283.909 279.447 283.061 281.072C278.185 290.408 273.461 294.471 264.382 299.507C263.928 299.805 263.953 299.776 263.406 299.817C263.339 298.668 266.165 294.329 266.815 292.915C270.857 284.121 271.113 275.479 271.521 265.983C277.453 264.137 278.122 263.218 284.85 262.861Z"/></svg>