<?xml version="1.0" encoding="utf-8" ?><svg xmlns="http://www.w3.org/2000/svg" xmlns:xlink="http://www.w3.org/1999/xlink" width="773" height="773" viewBox="0 0 773 773"><path fill="#F99C3C" transform="matrix(1.59381 0 0 1.59381 0 0.0078125)" d="M193.418 102.266C183.278 107.017 175.189 107.907 164.392 108.461C140.894 109.665 168.246 90.4293 174.786 87.9498C179.073 86.3248 184.893 88.3189 189.398 88.726C200.185 90.2284 210.745 92.2527 221.224 95.2169C223.475 95.8605 235.459 100.689 236.882 102.063L237.057 102.571C236.044 103.028 230.907 102.541 229.526 102.558C223.808 102.628 216.914 102.577 211.284 103.156L211.623 103.361C215.654 105.779 220.237 107.114 224.448 109.202C236.375 115.114 248.02 122.777 257.697 131.941C258.74 132.928 261.032 134.861 261.553 136.113C259.398 137.58 243.474 130.713 238.997 132.025L238.693 132.325C242.763 137.031 247.528 141.361 251.487 146.226C253.684 148.926 255.687 151.731 257.69 154.576C260.368 158.293 262.386 160.833 262.494 165.591C262.613 170.859 262.454 176.111 262.485 181.381L262.794 214.533L262.851 242.649C262.924 250.459 263.159 258.349 262.975 266.146C261.188 268.228 256.111 270.912 253.61 272.466C251.117 274.046 248.688 275.724 246.329 277.497C227.392 291.766 214.74 310.364 205.23 331.797C190.84 321.575 173.225 314.557 156.013 310.804C151.211 309.757 145.693 309.82 140.808 309.374C139.116 309.219 135.923 309.613 134.721 308.575C134.556 306.207 145.924 294.777 147.865 292.671C147.896 286.538 147.748 280.568 148.643 274.466C151.004 258.382 158.859 245.222 169.07 232.922C178.685 221.339 189.026 209.854 195.486 196.183C196.296 194.469 197.051 192.704 197.669 190.913C198.751 187.943 199.121 184.711 200.427 181.828C202.951 183.463 204.86 185.785 207.635 186.986C210.1 188.054 212.953 188.1 215.342 189.307C215.523 189.398 215.704 189.489 215.884 189.581L215.948 189.909C216.255 191.556 216.145 196.228 216.669 197.119C217.965 199.323 220.932 201.946 222.618 204.048C224.45 206.331 229.935 216.636 233.105 216.049C233.45 214.941 230.56 212.817 229.763 211.75C227.665 208.941 225.987 205.925 223.886 203.123C222.382 201.141 219.938 199.138 218.58 197.204C218.437 194.972 218.46 189.372 217.556 187.909C216.333 186.996 214.474 186.868 212.964 186.648C207.487 185.853 204.78 183.391 200.794 179.733C200.602 175.824 200.665 168.132 198.888 165.087L198.543 165.041C198.141 165.835 198.481 169.09 198.489 170.203C198.649 194.881 177.604 212.673 163.131 230.208C161.189 232.56 158.931 234.573 156.992 236.916C151.915 243.756 147.897 251.266 144.145 258.889C141.787 264.843 140.376 271.303 139.707 277.605C139.466 279.868 139.462 288.566 138.538 289.742C132.72 297.147 127.347 302.814 125.775 312.855C124.176 323.061 124.799 333.375 128.096 343.428C129.375 347.372 130.854 351.248 132.526 355.041C133.436 357.136 134.973 360.102 135.587 362.188L135.212 362.518C134.258 362.408 132.48 360.596 131.569 359.857C124.661 354.251 119.52 348.678 113.991 341.736C101.506 326.028 95.8064 305.986 98.1555 286.059C98.8367 280.203 102.191 264.705 107.113 260.868C110.148 258.501 119.439 260.207 124.13 260.315L128.014 260.904C131.048 259.37 133.167 256.618 136.426 255.702C136.889 255.572 136.716 255.668 137.036 255.275L136.624 255.026C135.505 254.976 130.325 257.47 129.208 258.132C126.561 258.863 123.725 258.497 121.121 258.062C111.23 256.412 102.813 258.569 95.2278 265.192C94.4776 265.847 91.9121 268.258 91.2334 268.556L90.8216 268.356C90.6475 267.238 91.3787 266.026 91.8029 265.002C98.8983 247.88 111.384 235.179 127.219 225.87C131.358 223.436 137.412 220.06 141.902 218.345C143.051 221.084 142.996 223.182 143.961 225.89L144.203 226.622C145.769 231.262 147.699 229.621 151.791 231.833C153.311 232.655 154.197 233.81 155.41 234.406L155.517 234.096C154.063 231.206 149.54 229.549 146.458 229.276C145.607 227.656 145.363 227.356 144.932 225.547C144.396 222.774 143.778 219.161 143.653 216.368C137.405 216.024 133.591 216.404 127.392 217.077C127.275 216.688 127.187 216.68 127.383 216.281C128.31 214.4 149.7 203.94 153.03 201.972C157.169 199.524 161.347 196.861 164.993 193.716C169.543 189.791 173.635 184.565 176.431 179.244C179.546 173.317 180.93 166.481 179.195 159.919C177.91 155.061 175.165 151.303 170.793 148.798C168.803 147.657 161.106 145.631 160.346 144.336C161.135 143.398 163.88 143.266 165.154 143.187C172.141 142.758 183.771 137.614 188.647 132.896C186.595 133.046 182.849 133.414 180.953 133.233C174.739 132.64 161.946 131.141 158.192 125.871C164.781 125.378 172.243 122.783 177.905 119.379C184.76 115.259 188.703 108.349 193.418 102.266ZM205.422 250.645C204.946 251.504 204.79 251.998 203.994 252.503C203.347 252.428 203.615 252.554 203.203 252.063C202.499 249.223 202.885 239.813 203.011 236.57C202.805 236.815 202.601 237.061 202.398 237.308C196.474 244.55 191.917 257.867 192.008 267.076C192.047 271.001 192.539 276.029 192.93 279.991C200.227 283.215 207.563 286.104 214.79 289.566C216.381 287.482 221.831 280.082 222.357 278.117C225.418 266.678 222.961 249.138 223.788 237.531L223.81 237.254C225.417 235.405 228.164 232.553 229.952 230.936C233.749 226.638 242.367 210.157 240.887 204.306L240.258 204.086C238.371 205.549 234.066 217.917 232.762 220.69C231.944 222.428 230.286 225.04 229.275 226.756C227.921 228.881 224.056 234.924 223.066 237.04C221.948 236.713 222.13 236.96 221.711 236.204C221.614 234.238 222.464 230.036 222.756 227.803C223.191 224.223 223.516 220.63 223.73 217.029C221.457 220.415 219.791 223.793 217.723 227.167C212.529 235.64 208.725 241.175 205.422 250.645ZM251.113 181.763C253.701 180.185 256.824 178.636 259.575 177.307C255.34 173.748 251.633 170.374 246.502 168.156C246.807 170.589 247.724 180.675 249.331 181.949C250.231 181.968 250.242 181.972 251.113 181.763Z"/><path fill="#B97A3F" transform="matrix(1.59381 0 0 1.59381 0 0.0078125)" d="M259.575 177.307C260.671 177.718 260.378 177.432 260.928 178.307C260.82 181.518 253.394 183.676 251.113 181.763C253.701 180.185 256.824 178.636 259.575 177.307Z"/><path fill="#FEFDF9" fill-opacity="0.011764706" transform="matrix(1.59381 0 0 1.59381 0 0.0078125)" d="M223.066 237.04C224.056 234.924 227.921 228.881 229.275 226.756C230.095 227.802 229.516 228.183 228.838 229.288C228.869 230.346 228.981 230.341 229.952 230.936C228.164 232.553 225.417 235.405 223.81 237.254L223.066 237.04Z"/><path fill="#FEA121" transform="matrix(1.59381 0 0 1.59381 0 0.0078125)" d="M203.203 252.063C203.217 251.285 203.21 250.902 203.355 250.121C204.046 249.261 203.626 249.471 204.557 249.297C205.411 249.948 205.104 249.533 205.422 250.645C204.946 251.504 204.79 251.998 203.994 252.503C203.347 252.428 203.615 252.554 203.203 252.063Z"/><path fill="#F99C3C" transform="matrix(1.59381 0 0 1.59381 0 0.0078125)" d="M174.724 38.4076L175.135 38.7871C175.204 40.7761 172.498 46.2946 171.455 48.4621C168.098 55.4413 163.191 63.5383 157.195 68.5012C154.401 70.8132 149.657 72.8703 146.271 74.2898C139.189 77.2592 132.262 83.8301 128.855 90.7247C131.863 88.7534 135.417 85.4659 138.18 83.8721C140.625 82.4612 151.45 75.7897 153.799 76.3495C156.849 79.0377 160.054 86.0141 161.378 89.9927C158.303 92.9806 155.85 94.3501 153.063 98.1647C152.209 99.353 151.453 100.608 150.801 101.918C149.985 103.579 149.544 105.879 148.23 107.055C146.331 107.692 142.095 106.661 139.857 106.281C148.963 113.322 165.753 113.573 176.705 111.059C178.442 110.66 180.608 110.049 182.348 109.899C182.435 111.594 178.146 113.98 176.823 114.935C168.517 120.933 158.314 122.789 148.38 124.33C154.005 130.171 160.521 133.786 168.457 135.294C170.252 135.635 174.406 135.579 175.644 136.892L175.602 137.383C174.204 138.428 171.692 138.407 169.986 138.722C161.117 140.357 152.33 139.484 143.307 139.049C145.615 141.557 148.484 144.306 151.364 145.934C152.85 146.773 157.301 149.257 158.779 148.543C159.063 148.406 159.112 148.518 159.435 148.639C159.39 148.894 159.206 149.796 158.878 149.827C152.488 150.427 146.035 150.383 140.497 154.372L140.203 154.586C143.973 156.446 149.806 160.69 152.528 163.906C144.282 163.575 137.309 161.847 128.496 163.505C119.132 165.267 111.303 170.238 105.741 178.107C103.082 181.868 100.148 187.89 102.983 192.552C103.685 193.706 106.628 195.205 106.914 196.824C106.71 196.956 106.358 197.154 106.107 197.147C97.3754 196.917 86.9488 198.099 79.3732 192.948C76.0857 190.713 72.5744 185.968 71.9576 182.302L72.2421 182.083C75.0836 182.165 78.7734 185.15 81.7159 183.545C82.1722 181.793 78.9541 177.793 78.4825 174.812L78.6758 174.168L79.2298 174.005C81.8665 174.746 85.0357 179.255 88.7379 178.701C90.8554 176.945 87.1224 173.445 87.9463 171.314C89.3601 170.997 92.5886 173.784 93.7082 174.673C97.0479 170.623 99.8431 166.883 102.867 162.64C104.484 160.372 108.906 153.18 110.523 151.622C112.548 150.77 113.636 152.46 115.808 152.574L116.215 152.193C116.56 150.724 116.307 148.624 116.296 146.984C116.222 136.631 120.83 130.2 129.392 124.851C130.869 123.929 134.215 122.819 135.095 121.919L134.849 121.787C132.121 121.751 131.016 122.699 128.696 123.638C118.585 127.728 114.15 134.478 112.241 145.069C102.753 142.771 96.9626 141.478 87.1251 144.739C84.9063 145.474 82.0669 147.317 79.9546 147.809C78.7941 147.297 77.8439 144.589 76.9284 143.048C76.9282 145.565 79.154 155.625 77.962 156.801C75.8983 156.341 74.2874 154.111 72.4358 152.625L72.187 152.427C69.2002 159.223 70.3238 162.493 72.4604 168.98C67.1923 165.929 63.7201 163.292 59.0569 159.44C58.6188 161.775 57.9975 164.517 57.9378 166.875C57.906 168.128 58.611 170.292 58.0867 171.353L57.571 171.396C48.5405 165.218 36.6969 155.485 40.7436 142.575C41.8469 139.056 46.417 129.874 48.9574 127.374L49.3125 127.429C50.1 128.298 50.6017 130.145 51.0515 131.367C57.3305 133.475 61.3577 128.612 66.608 127.811C70.4523 123.719 74.8168 123.54 77.2507 118.943C77.9322 117.656 78.8282 114.168 79.3719 112.535C81.2493 106.739 87.9239 104.721 92.6098 101.716C96.5536 99.1866 99.2273 96.2018 102.128 92.6033C103.243 91.2204 105.792 86.6996 107.092 86.0886C108.315 86.7381 111.433 89.2218 112.977 90.2558C114.628 88.9649 116.092 86.9718 117.569 85.4034C120.58 82.2076 124.058 78.6035 127.609 76.0521C132.407 72.7087 137.933 69.795 143.087 67.0884C153.489 61.6262 162.316 54.6079 169.431 45.2277C171.211 42.8806 172.458 40.4288 174.724 38.4076ZM89.6871 122.805C93.6475 122.625 101.554 122.547 104.136 119.501C106.198 117.067 106.962 112.615 109.087 109.822C109.727 108.98 112.065 106.457 112.183 105.889C111.71 105.672 111.937 105.698 111.515 105.738C107.376 107.312 101.607 111.606 97.9044 114.162C96.7131 114.984 89.4241 121.472 89.0894 122.51C89.5002 122.835 89.288 122.769 89.6871 122.805ZM49.8073 148.37C50.6068 146.483 50.6866 146.457 51.6351 144.856C52.7269 143.014 56.8941 139.942 56.8821 138.934L56.2088 138.762C53.5378 140.067 50.6729 141.194 49.749 144.261C49.4725 145.179 49.139 147.495 49.3981 148.42L49.8073 148.37ZM75.8661 140.449C74.8924 137.895 70.5541 130.449 68.2429 129.478C68.6843 131.101 74.0666 140.045 75.8661 140.449Z"/><path fill="#FEFDF9" fill-opacity="0.070588239" transform="matrix(1.59381 0 0 1.59381 0 0.0078125)" d="M68.2429 129.478C70.5541 130.449 74.8924 137.895 75.8661 140.449C74.0666 140.045 68.6843 131.101 68.2429 129.478Z"/><path fill="#F99C3C" transform="matrix(1.59381 0 0 1.59381 0 0.0078125)" d="M256.458 112.34C260.237 110.686 264.131 109.317 267.931 107.609C283.817 100.378 299.471 92.6464 314.869 84.4263C316.293 83.6688 325.296 78.4553 325.786 78.5325L326.018 79.0189C325.859 80.6872 320.561 89.9472 319.364 92.4796C310.587 111.052 311.967 130.617 311.968 150.822L311.984 197.737C311.978 202.402 312.017 207.067 312.101 211.732C312.157 215.592 312.255 219.998 311.785 223.82C311.52 225.974 309.694 227.986 308.533 230.13C309.612 230.397 309.773 230.495 310.778 231.013C308.779 231.425 307.751 230.141 305.394 228.928L305.041 229.211C303.372 227.268 301.033 225.791 299.091 224.15C294.378 220.169 289.178 218.249 283.697 215.586C281.87 209.65 279.747 206.602 274.45 203.28C275.526 204.886 277.136 206.669 278.044 208.152C282.022 214.659 282.676 217.558 290.265 220.365C291.727 220.906 298.599 225.671 300.081 227.064C300.494 228.185 304.255 231.501 305.413 232.562C305.041 233.337 304.185 234.93 304.063 235.681C303.905 236.38 303.084 237.271 302.61 237.87C301.108 239.804 299.412 241.578 297.548 243.167C296.207 244.292 292.299 247.208 291.44 248.492C289.353 251.612 287.916 255.747 285.871 259.102L285.687 259.4C285.266 259.53 284.842 259.652 284.417 259.766C282.781 260.199 273.126 262.5 272.35 262.046C271.632 259.499 271.968 240.485 271.968 236.752L271.836 177.129C271.872 168.824 271.847 160.519 271.76 152.214C271.528 135.335 271.116 123.646 256.458 112.34Z"/><path fill="#F99C3C" transform="matrix(1.59381 0 0 1.59381 0 0.0078125)" d="M312.044 231.16C312.382 232.004 312.546 233.006 312.496 233.922C311.839 245.915 312.597 257.884 312.438 269.886C312.298 280.406 309.012 278.191 303.966 284.594L304.333 284.433C306.393 283.517 311.393 279.67 312.41 279.503C316.456 278.838 331.191 281.071 334.189 283.055C327.816 290.715 326.683 290.395 322.52 299.727C325.716 296.778 325.858 295.018 327.877 291.871C328.95 290.2 334.651 284.105 336.027 283.387C338.041 282.336 349.718 285.391 352.038 285.952C368.752 289.992 386.365 294.421 402.903 287.064C410.34 283.899 414.341 279.467 420.768 276.197C419.098 279.797 417.108 283.124 415.22 286.576C407.069 301.48 396.644 315.139 385.995 328.327C384.261 330.475 380.639 335.882 378.677 336.944C377.344 336.932 373.995 335.068 372.693 334.375C367.511 331.615 362.194 329.692 356.628 327.797C348.689 325.177 340.62 322.969 332.453 321.182C329.321 320.486 321.703 319.288 319.045 318.202C318.674 314.559 317.683 303.515 318.855 300.413C319.275 300.012 319.39 299.93 319.872 299.602C319.713 298.723 315.208 295.756 314.112 294.954C314.81 295.981 316.635 298.559 316.732 299.555C317.197 304.355 317.232 313.375 316.958 318.095C311.299 317.412 305.637 316.117 299.988 315.506C285.367 313.925 270.513 314.489 255.848 315.086C253.726 315.173 247.996 316.107 246.348 315.85C246.87 312.667 273.426 297.397 277.294 294.391C281.123 291.414 283.316 285.982 286.799 283.184C290.002 283.48 300.561 285.108 302.85 284.048L302.74 283.663C300.525 282.897 298.302 282.6 295.985 282.382C293.287 282.129 290.566 282.616 287.919 282.192C287.822 282.023 287.724 281.855 287.627 281.687C287.903 278.508 289.888 275.377 289.991 272.048C290.12 267.878 289.885 263.67 289.951 259.513C290.019 255.162 290.33 252.438 293.662 249.363C297.396 245.917 300.886 241.795 304.263 237.984C304.286 237.966 304.31 237.947 304.333 237.928C305.188 237.657 310.88 232.163 312.044 231.16Z"/><path fill="#F99C3C" transform="matrix(1.59381 0 0 1.59381 0 0.0078125)" d="M214.71 38.6624L215.323 38.8656C215.445 39.2343 215.616 39.4546 215.461 39.8231C208.327 56.7035 197.048 71.2347 180.397 79.537C174.07 82.6913 167.991 85.7522 162.248 89.5198C161.963 87.725 161.585 85.859 161.248 84.0655C160.165 81.2484 155.113 78.3471 155.263 75.6373C156.621 74.3744 161 73.2163 162.803 72.7985C180.23 68.7595 194.97 59.8927 207.385 47.0724C209.748 44.6327 211.796 40.5224 214.71 38.6624Z"/><path fill="#F99C3C" transform="matrix(1.59381 0 0 1.59381 0 0.0078125)" d="M283.977 261.567C284.153 261.543 284.329 261.521 284.506 261.501C285.597 261.379 285.802 261.371 286.562 261.986C286.667 262.211 287.798 269.906 287.754 270.207C286.316 280.085 279.248 288.785 271.492 294.672C269.951 295.842 268.532 297.147 266.871 298.16C266.011 298.744 265.19 299.489 264.145 299.178C263.845 297.743 266.903 292.237 267.698 290.214C269.178 286.447 269.718 284.95 270.619 280.946C271.687 276.193 271.537 268.438 272.384 264.41C272.622 263.281 282.095 261.932 283.977 261.567Z"/><path fill="#FEFDF9" fill-opacity="0.98431373" transform="matrix(1.59381 0 0 1.59381 0 0.0078125)" d="M300.081 227.064C301.566 228.374 302.644 229.447 304.639 229.849L305.062 229.655L305.041 229.211L305.394 228.928C307.751 230.141 308.779 231.425 310.778 231.013C311.285 231.098 311.533 231.134 312.044 231.16C310.88 232.163 305.188 237.657 304.333 237.928C304.845 237.199 305.636 236.166 305.513 235.262C304.753 235.107 304.95 235.191 304.063 235.681C304.185 234.93 305.041 233.337 305.413 232.562C304.255 231.501 300.494 228.185 300.081 227.064Z"/><path fill="#FEE3CB" fill-opacity="0.015686275" transform="matrix(1.59381 0 0 1.59381 0 0.0078125)" d="M129.208 258.132C130.325 257.47 135.505 254.976 136.624 255.026L137.036 255.275C136.716 255.668 136.889 255.572 136.426 255.702C133.167 256.618 131.048 259.37 128.014 260.904L124.13 260.315L125.331 260.17L125.377 260.009C124.146 259.687 121.765 259.708 120.393 259.671C122.804 259.211 124.185 259.188 126.657 259.176L125.999 259.324C127.31 259.459 128.643 259.54 129.208 258.132Z"/><path fill="#FEFDF9" fill-opacity="0.023529412" transform="matrix(1.59381 0 0 1.59381 0 0.0078125)" d="M144.932 225.547C145.363 227.356 145.607 227.656 146.458 229.276C149.54 229.549 154.063 231.206 155.517 234.096L155.41 234.406C154.197 233.81 153.311 232.655 151.791 231.833C147.699 229.621 145.769 231.262 144.203 226.622L143.961 225.89L144.932 225.547Z"/><path fill="#0B000E" fill-opacity="0.011764706" transform="matrix(1.59381 0 0 1.59381 0 0.0078125)" d="M166.582 88.3795C167.437 88.102 167.921 88.1185 168.606 88.6474C168.056 88.6296 167.839 88.6292 167.306 88.7034L166.873 88.7657L166.582 88.3795Z"/></svg>