<?xml version="1.0" encoding="utf-8" ?><svg xmlns="http://www.w3.org/2000/svg" xmlns:xlink="http://www.w3.org/1999/xlink" width="790" height="790" viewBox="0 0 790 790"><path fill="#F79C3B" transform="scale(1.62887 1.62887)" d="M192.99 102.639C183.409 106.817 174.967 108.436 164.525 108.219C162.024 108.167 156.108 108.634 154.907 106.089C154.542 100.317 170.723 89.0435 176.181 87.3964C178.174 86.7947 184.589 88.1777 186.981 88.4825C203.993 90.6499 222.979 94.1034 238.065 102.698C236.979 102.75 235.94 102.68 234.859 102.668C227.102 102.584 219.142 102.498 211.419 103.282C214.487 105.246 222.122 108.162 225.887 110.042C237.178 115.651 247.619 122.828 256.901 131.36C258.087 132.437 260.774 134.725 261.457 135.964L261.145 136.354C259.78 136.572 249.525 133.515 246.978 132.986C243.987 132.375 240.958 131.968 237.912 131.767C246.537 140.193 256.26 150.916 262.144 161.515C262.669 162.462 262.511 178.266 262.541 180.538C262.81 199.649 262.911 218.763 262.845 237.876C262.855 246.869 263.216 258.029 262.837 266.784C258.174 270.067 252.749 272.68 247.99 276.307C227.759 291.726 215.352 308.883 205.165 331.793C190.769 321.859 173.429 314.354 156.199 310.986C150.316 309.837 140.337 309.359 134.311 309.084C137.216 303.513 143.548 297.254 147.977 292.789C147.755 290.061 147.927 287.469 147.916 284.807C147.846 267.491 154.492 251.823 164.95 238.271C170.537 231.031 177.234 223.757 182.697 216.306C183.092 215.942 185.103 213.308 185.58 212.675C190.781 205.882 194.943 198.353 197.929 190.335C198.871 187.765 199.376 184.103 200.531 181.793C203.516 184.387 206.285 187.224 210.238 187.732C211.264 187.864 214.188 188.481 215.1 188.873C217.458 189.885 216.03 194.889 216.965 197.151C218.069 199.951 221.023 201.581 222.766 203.848C226.889 209.213 227.64 214.356 234.347 217.261C233.265 220.472 223.807 236.979 221.399 237.419C221.358 237.232 222.537 231.458 222.644 230.636C223.232 226.127 223.336 221.71 223.528 217.178C222.463 218.93 221.547 220.761 220.56 222.559C216.104 230.673 210.326 238.049 206.722 246.626C206.24 247.773 205.005 252.452 203.744 252.579C202.56 250.518 202.679 239.565 202.739 236.708C195.339 247.029 190.962 258.808 192.189 271.58C192.456 274.357 192.736 277.242 192.793 280.027C200.29 282.893 207.646 286.115 214.836 289.681C217.549 285.369 221.308 281.468 223.129 276.642C224.362 273.375 223.6 244.337 223.712 238.266C225.546 234.915 229.834 231.41 232.289 227.755C235.652 222.748 241.986 210.114 240.85 204.183L240.527 204.037C238.962 205.389 235.823 213.622 234.781 216.116C228.029 211.887 227.903 208.872 223.293 202.749C222.519 201.721 219.549 199.054 218.249 197.497C218.108 196.151 218.171 188.403 217.282 187.935C214.54 186.492 210.37 186.996 207.498 185.319C204.901 183.804 203.062 181.698 200.711 179.886C200.459 176.812 200.312 173.604 200.119 170.514C199.766 168.184 199.595 166.104 198.609 163.947C198.662 166.044 198.648 169.948 198.835 171.926C197.904 183.943 193.107 193.112 186.334 202.82C185.375 204.196 181.042 209.55 180.469 210.555C175.677 216.244 170.724 221.731 165.721 227.236C164.299 228.801 158.683 235.528 157.389 236.482C155.543 232.092 151.26 230.264 147.054 229.339C144.475 228.773 144.167 217.971 143.383 216.583C136.707 215.669 132.652 216.79 126.218 217.107C139.988 207.505 156.252 203.075 168.333 190.513C176.898 181.608 183.424 169.162 178.023 156.633C174.796 149.144 166.704 146.79 159.629 144.228C161.306 143.78 165.254 143.39 167.279 142.991C175.744 141.323 181.58 138.335 188.459 133.347C188.283 133.357 188.106 133.364 187.929 133.37C179.848 133.635 164.489 132.093 158.467 126.475C176.737 122.168 182.856 118.478 192.99 102.639ZM249.457 182.271C249.862 182.183 250.946 181.923 251.475 181.646C254.009 180.324 256.583 178.88 259.157 177.608C259.221 177.431 259.285 177.254 259.349 177.077C253.788 172.072 253.236 171.747 246.681 168.234C246.985 171.874 247.277 179.662 249.457 182.271Z"/><path fill="#B1753B" transform="scale(1.62887 1.62887)" d="M259.349 177.077C260.375 177.61 260.994 177.796 261.398 178.7C260.682 181.224 254.341 182.967 251.892 182.441C251.073 182.266 250.212 182.387 249.457 182.271C249.862 182.183 250.946 181.923 251.475 181.646C254.009 180.324 256.583 178.88 259.157 177.608C259.221 177.431 259.285 177.254 259.349 177.077Z"/><path fill="#F79C3B" transform="scale(1.62887 1.62887)" d="M171.251 43.1746C172.439 41.3876 173.561 39.6689 175.178 38.2327C174.721 40.4041 174.205 41.6902 173.419 43.7565C170.302 52.0454 163.247 64.5873 155.849 69.5201C153.228 71.267 149.377 72.8837 146.425 74.1461C138.676 77.4598 133.057 83.4446 128.889 90.7017C136.115 84.2659 144.732 79.6945 153.655 76.0748C155.48 79.5618 157.797 81.6379 159.669 84.8906C160.126 85.6848 160.772 89.3105 161.007 90.4212C153.092 97.1636 152.389 97.8982 148.46 107.371C145.871 107.329 142.574 106.777 139.965 106.374C147.562 113.051 163.991 113.11 173.556 111.752C176.712 111.304 180.304 110.265 183.521 109.658C181.441 111.814 179.63 112.848 177.41 114.538C168.468 121.346 159.352 122.242 148.562 124.39C155.927 132.035 160.499 134.016 171.164 135.776C172.15 135.939 175.226 136.169 175.922 136.721L175.79 137.089C173.891 137.964 171.386 138.297 169.324 138.719C160.646 140.494 152.009 138.996 143.309 139.103C149.299 145.312 151.895 146.693 160.127 149.94C150.922 150.639 149.096 149.612 140.232 154.444C144.864 156.895 148.879 160.34 152.422 164.157C145.902 163.637 142.502 162.623 135.281 162.835C124.887 163.141 116.53 166.362 109.105 173.892C105.792 177.252 101.615 183.609 101.761 188.522C101.865 192.017 104.876 194.722 107.27 196.993C99.6288 197.238 89.2916 197.755 82.2655 194.728C76.5564 192.267 73.6795 187.193 71.5521 181.602C73.831 182.508 79.4225 185.208 81.5011 183.575C82.2668 181.103 77.8628 176.595 79.1201 174.205L79.4921 174.163C81.1862 175.492 87.6704 180.49 89.4632 178.169C89.7833 176.343 87.9998 172.755 87.2796 170.724C89.0399 171.649 92.4488 173.193 93.838 174.313C98.3064 169.762 102.455 163.202 106.186 157.909C107.846 155.555 109.123 153.233 110.994 150.912C112.685 151.669 114.571 152.377 116.304 153.066C116.258 149.877 116.146 145.963 116.531 142.876C117.544 134.908 122.953 128.315 129.936 124.637C131.952 123.575 135.514 122.247 137.142 120.884C131.799 121.89 126.744 124.276 122.223 127.278C115.623 131.662 113.483 137.579 112.087 145.059C98.2022 141.34 92.514 141.786 79.2774 148.081C78.2801 146.011 77.317 143.122 76.3695 140.858C73.9995 135.195 70.5978 131.772 67.1106 127.012C69.915 124.798 73.8011 123.194 76.2066 120.767C78.8798 118.07 78.4915 111.607 81.38 108.853C84.3596 106.012 88.8785 104.053 92.4731 101.843C99.0611 97.794 102.796 91.7078 107.131 85.5729C109.33 88.0233 110.548 88.7461 113.558 89.8285C118.303 84.1047 124.363 77.8764 130.731 74.0698C138.629 69.3485 146.605 65.9584 154.135 60.4309C161.788 54.8131 165.535 50.3563 171.251 43.1746ZM88.9019 122.696C93.4356 122.58 100.889 122.925 104.347 119.486C106.603 117.242 106.962 112.23 108.966 109.528C109.9 108.268 112.513 106.383 112.703 105.249C107.991 107.502 100.488 111.788 96.6182 115.03C94.1873 117.067 91.3686 120.082 88.9004 122.321L88.9019 122.696Z"/><path fill="#F79C3B" transform="scale(1.62887 1.62887)" d="M325.473 78.7504L325.977 78.8125L326.122 79.2985C325.562 81.185 321.993 86.9454 320.87 89.156C317.517 96.0888 313.988 105.096 313.103 112.79C311.787 124.241 312.07 136.674 312.074 148.177L312.157 200.416C312.184 207.679 312.524 217.228 311.857 224.454C311.737 225.749 308.55 229.076 307.484 230.267C302.225 226.866 297.677 222.192 291.729 219.567C289.141 218.424 285.982 217.175 283.582 215.775L283.295 215.605C282.445 212.429 281.998 211.042 280.057 208.422C278.058 205.99 274.926 203.184 272.37 201.371C271.598 197.831 271.77 188.336 271.795 184.339C271.858 174.085 272.047 163.863 271.902 153.583C271.804 146.713 271.819 141.451 270.737 134.596C269.529 126.942 262.874 116.729 256.646 112.325C260.957 110.867 267.121 107.936 271.388 106.035C284.488 100.075 297.42 93.7524 310.168 87.0727C315.269 84.3666 320.289 81.2481 325.473 78.7504Z"/><path fill="#F79C3B" transform="scale(1.62887 1.62887)" d="M336.284 282.697C358.57 285.946 380.271 296.694 402.325 287.351C406.622 285.751 410.266 283.009 414.054 280.501C416.038 279.188 418.144 277.639 420.397 276.805C408.507 300.812 395.222 316.881 378.821 337.398C373.996 335.346 369.516 332.706 364.474 330.732C350.049 325.086 334.693 321.369 319.487 318.587C318.57 312.089 317.789 306.717 318.828 300.082L322.398 299.442C317.473 298.829 317.972 297.382 313.918 294.922L313.608 294.736C314.446 296.249 316.104 297.41 316.676 299.013C317.222 300.54 316.593 315.103 316.632 318.045C313.943 317.863 311.099 317.195 308.411 316.837C303.378 316.167 297.547 315.073 292.501 314.849C282.117 314.388 271.333 314.51 260.949 314.948C255.87 315.162 250.929 315.705 245.806 315.851C249.041 312.736 252.431 310.886 255.963 308.247C262.475 303.381 270.22 299.825 276.598 294.963C280.088 292.302 282.967 286.995 286.042 283.693L286.272 283.448C287.734 283.506 289.697 283.695 291.094 283.677C294.953 283.627 302.298 285.684 305.556 283.965C308.138 282.392 310.469 280.227 313.172 278.966C318.034 279.11 328.911 281.46 334.015 282.438C331.473 286.47 329.675 287.782 326.868 291.331C325.54 293.01 323.782 297.545 322.518 299.866C323.358 299.005 324.429 297.972 325.052 296.976C325.922 295.582 327.391 292.05 328.499 290.921C332.002 287.352 333.444 287.025 336.284 282.697Z"/><path fill="#F79C3B" transform="scale(1.62887 1.62887)" d="M133.895 390.78C136.569 390.978 139.267 391.056 141.991 391.262C142.951 394.969 144.513 399.164 145.793 402.835L151.932 420.554C154.45 427.971 156.628 436.435 159.924 443.424C161.22 446.171 164.793 449.359 166.914 451.676C159.825 451.969 151.386 451.768 144.222 451.769C145.178 450.491 148.005 447.641 149.227 446.549C148.018 442.699 146.248 436.843 145.586 433.006C142.186 433.257 130.124 433.352 127.035 432.809C125.806 437.458 124.252 441.545 122.593 446.038C124.436 447.683 126.598 449.965 128.379 451.751C119.074 451.797 109.34 451.968 100.075 451.758C96.4782 448.331 93.8877 443.284 91.3754 438.996C88.85 434.653 86.2934 430.327 83.7058 426.02C81.8939 426.311 80.6702 426.285 78.8243 426.292C79.0847 432.308 78.5827 439.132 79.3315 445.067C79.56 446.879 83.542 449.759 83.6765 451.3C83.0196 451.731 81.9874 451.622 81.1482 451.627C75.3203 451.919 68.4134 451.787 62.5157 451.792C63.659 450.235 66.6575 447.385 68.1428 445.868C68.5308 437.399 67.9564 426.893 68.1653 418.224C68.2689 413.921 68.404 400.749 67.9031 396.871C66.3988 395.068 64.1577 392.915 62.4739 391.205C71.0781 391.37 88.1124 389.856 95.2121 392.978C99.1618 394.715 102.578 397.958 104.123 402.03C105.506 405.676 105.507 410.559 103.881 414.105C101.855 418.52 97.9169 421.882 93.3842 423.462C96.8147 428.292 106.595 445.788 110.298 448.024C113.159 448.51 114.447 445.916 115.421 443.71C118.086 437.677 119.892 431.267 122.013 425.023L133.895 390.78ZM78.8558 420.027C83.6485 419.963 87.6612 420.358 91.3818 416.815C93.5083 414.392 94.578 411.219 94.3528 408.002C94.1737 405.045 93.0027 402.393 90.7333 400.426C87.8103 397.892 82.8435 398.152 79.1065 398.118C78.5334 404.187 79.2804 413.346 78.8558 420.027ZM129.208 426.923L136.302 426.894L143.688 426.942C142.664 424.325 136.631 403.745 136.38 403.477C133.833 411.244 131.442 419.061 129.208 426.923Z"/><path fill="#F79C3B" transform="scale(1.62887 1.62887)" d="M135.955 255.926C139.006 257.217 140.905 258.407 143.753 259.831C143.323 262.084 141.774 265.6 141.163 268.241C139.447 275.66 139.289 282.261 139.045 289.778C138.112 290.917 136.897 292.202 135.864 293.227C121.418 307.554 122.914 331.002 129.958 348.547C131.799 353.133 134.298 358.534 135.878 363.288C135.109 362.765 134.356 362.218 133.619 361.65C115.725 347.817 101.011 327.659 98.1167 304.785C96.5491 292.65 98.0359 280.316 102.442 268.901C104.356 263.88 105.497 259.68 111.452 259.184C114.863 259.23 124.78 259.996 127.98 260.7C130.769 259.261 133.415 257.127 135.955 255.926Z"/><path fill="#F79C3B" transform="scale(1.62887 1.62887)" d="M398.644 390.32C412.812 388.712 423.278 399.457 425.593 412.751C426.123 416.758 426.216 420.999 426.003 425.039C425.187 440.457 417.438 450.106 402.373 452.518C386.791 453.285 377.104 444.38 374.747 429.111C373.334 419.147 374.486 408.363 380.573 400.056C385.183 393.763 391.217 391.407 398.644 390.32ZM402.604 445.396C415.979 442.739 415.698 422.887 414.178 412.354C413.526 407.835 410.614 402.012 406.707 399.412C403.615 397.428 401.375 397.394 397.929 397.595C384.102 400.193 384.705 420.103 386.616 430.669C388.27 439.813 392.712 445.797 402.604 445.396Z"/><path fill="#F79C3B" transform="scale(1.62887 1.62887)" d="M241.752 390.315C241.846 390.295 241.941 390.275 242.036 390.254C271.003 387.678 276.658 424.133 263.762 443.135C259.73 449.075 253.155 451.48 247.066 452.451C241.623 453.293 233.26 451.382 228.893 447.917C222.919 443.197 219.803 436.157 218.837 428.764C216.647 412.002 222.18 392.487 241.752 390.315ZM247.622 445.218C259.587 441.411 259.76 424.491 258.47 414.288C257.749 408.589 255.469 401.72 249.938 398.886C247.084 397.424 244.471 397.455 241.349 397.581C227.899 400.65 228.879 421.941 230.895 432.29C232.569 440.891 238.588 446.43 247.622 445.218Z"/><path fill="#F79C3B" transform="scale(1.62887 1.62887)" d="M7.67124 391.282C15.8673 391.174 24.7829 390.97 32.9021 391.305C39.6339 391.584 47.7779 394.752 52.162 400.071C57.2428 406.236 59.3156 415.767 58.5536 423.626C57.6405 433.043 55.2623 439.878 47.8936 445.974C39.2014 451.865 32.8491 451.384 22.8376 451.403C17.6222 451.367 12.4065 451.408 7.19229 451.525C9.96625 448.997 12.684 447.002 12.6965 442.838C12.7417 427.902 13.1768 412.705 12.3999 397.804C12.2946 395.785 8.07973 393.644 7.67124 391.282ZM23.7772 444.655C31.3143 444.737 36.4792 445.295 42.0786 439.483C48.8803 429.755 50.0734 409.087 39.3847 401.15C35.449 398.227 28.3963 398.249 23.5718 398.222C23.7808 413.631 23.4091 429.304 23.7772 444.655Z"/><path fill="#F79C3B" transform="scale(1.62887 1.62887)" d="M327.432 391.134C327.873 391.045 327.636 391.032 328.132 391.266C328.139 392.275 324.016 396.482 323.062 397.585C322.848 399.293 322.789 401.264 322.805 402.995C322.954 419.241 322.529 435.607 323.018 451.839L315.381 451.731C309.68 444.217 303.709 432.985 298.355 424.871C295.747 420.918 288.867 410.618 287.265 406.843C287.72 413.814 286.587 441.959 287.976 445.136C289.07 447.637 292.178 449.776 294.024 451.814C289.335 451.772 280.101 452.012 275.036 451.863C274.876 451.73 274.716 451.598 274.556 451.465L274.698 451.048C276.419 449.502 278.366 447.856 279.846 446.104C280.272 441.159 279.998 431.279 279.95 426.071C279.863 416.707 280.095 406.276 279.687 396.986C278.078 395.004 275.472 393.161 273.445 391.46C277.231 391.033 285.149 391.239 289.21 391.251C293.816 398.858 298.466 406.439 303.16 413.992C307.247 420.474 312.292 427.949 315.537 434.77C314.717 427.447 316.059 400.73 314.578 397.07C313.707 394.915 311.029 392.986 309.489 391.204L327.432 391.134Z"/><path fill="#F79C3B" transform="scale(1.62887 1.62887)" d="M90.5391 269.096C91.4294 265.925 92.6152 263.385 93.9567 260.48C102.807 241.318 119.919 228.635 138.593 219.977C139.461 219.575 140.801 218.862 141.735 218.799C142.436 219.28 142.22 219.142 142.601 220.071C143.456 222.844 143.804 229.41 146.286 230.043C152.004 231.501 152.785 232.607 157.013 236.826C154.925 240.414 152.014 244.05 149.793 247.733C148.582 249.742 144.849 258.087 143.997 258.93C141.029 256.95 139.334 256.195 136.069 254.848C133.108 256.098 130.352 257.927 127.406 259.367C122.965 259.022 119.456 258.053 114.652 257.883C107.673 257.695 102.489 259.887 96.8253 263.963C94.6035 265.562 92.7726 267.485 90.5391 269.096Z"/><path fill="#F79C3B" transform="scale(1.62887 1.62887)" d="M459.147 390.353C465.472 390.004 471.014 391.794 476.896 391.975C475.38 397.761 475.695 402.732 473.225 409.322C471.694 406.388 470.226 401.487 468.112 399.111C466.627 397.443 462.047 397.179 459.816 397.333C455.315 397.643 451.144 399.394 448.152 402.909C442.86 409.126 442.315 417.134 442.802 424.916C443.179 430.927 446.101 437.619 450.737 441.537C455.708 445.737 460.945 445.491 467.048 444.949C467.242 439.858 467.379 431.866 466.937 426.904C465.562 425.271 463.791 423.67 462.283 421.923C463.873 421.725 466.038 421.72 467.688 421.671C472.836 421.548 477.986 421.553 483.135 421.686C482.221 422.704 481.141 423.819 480.158 424.797C477.027 427.912 477.823 433.011 477.771 437.093C477.72 441.104 477.859 445.288 478.049 449.303C473.425 450.476 469.12 451.567 464.424 452.224C443.571 455.144 430.104 439.994 431.58 419.622C432.834 402.302 441.482 391.777 459.147 390.353Z"/><path fill="#F79C3B" transform="scale(1.62887 1.62887)" d="M189.421 390.617C196.05 389.944 202.692 390.908 209.239 391.875C209.253 394.253 208.601 408.092 206.505 408.547C204.581 407.433 203.023 401.11 201.154 399.315C199.193 397.589 195.993 397.287 193.519 397.23C180.104 396.921 175.287 409.596 175.479 421.123C175.596 428.11 177.395 435.73 182.61 440.811C187.788 445.855 193.442 445.461 200.208 445.318C200.135 439.805 200.506 432.131 199.803 426.82C198.707 425.529 196.567 423.866 195.901 422.476L196.095 422.054L196.945 421.958C202.516 421.553 209.9 421.688 215.522 421.801C211.567 426.397 210.424 428.751 210.551 434.832C210.649 439.563 210.758 444.771 210.61 449.497C199.559 451.834 185.68 454.912 175.707 447.568C162.03 437.497 161.095 414.279 170.498 401.063C175.344 394.252 181.512 391.951 189.421 390.617Z"/><path fill="#F79C3B" transform="scale(1.62887 1.62887)" d="M272.01 202.788C272.97 202.951 273.834 203.904 274.563 204.435C278.969 207.648 280.532 212.127 283.122 216.449C283.923 217.786 289.697 219.722 291.415 220.911C296.401 224.361 301.169 228.259 305.477 232.581C303.634 236.465 299.652 241.668 296.227 244.405C294.637 245.676 292.802 246.789 291.385 248.234C289.727 251.184 287.394 256.941 285.638 259.255C284.492 259.636 283.245 259.884 282.054 260.092C278.712 260.675 275.452 261.605 272.133 262.278C271.861 260.081 271.941 256.44 271.943 254.141L271.952 241.453C271.84 228.565 271.859 215.676 272.01 202.788Z"/><path fill="#F79C3B" transform="scale(1.62887 1.62887)" d="M49.1401 127.135C49.9469 127.747 49.9852 129.077 50.384 129.94C52.6804 134.909 62.4237 129.266 65.9682 127.702C67.466 129.744 69.2758 131.467 70.644 133.758C71.6443 135.433 72.1979 136.872 73.0631 138.579C73.2838 139.014 74.9129 140.38 75.2004 140.924C77.838 145.906 77.9339 151.95 78.0476 157.267C75.9684 155.83 74.0734 154.462 72.2823 152.673C72.0706 153.072 71.8642 153.473 71.6629 153.878C69.0222 159.209 70.2577 163.117 72.0516 168.454C70.7768 167.915 69.5716 167.234 68.3493 166.581C66.3501 165.472 60.9274 161.269 59.2421 159.751C57.7662 164.248 57.6961 166.951 58.083 171.612C56.7047 170.773 55.3335 169.923 53.9696 169.061C47.2183 164.747 42.0774 158.16 39.9428 150.273C38.221 143.911 45.412 132.589 49.1401 127.135ZM49.3155 150.144C51.2782 144.418 51.9744 142.775 57.279 139.43L56.5065 138.819C50.0833 141.987 48.9663 142.369 49.3155 150.144Z"/><path transform="scale(1.62887 1.62887)" d="M56.5065 138.819L57.279 139.43C51.9744 142.775 51.2782 144.418 49.3155 150.144C48.9663 142.369 50.0833 141.987 56.5065 138.819Z"/><path fill="#190501" transform="scale(1.62887 1.62887)" d="M56.5065 138.819C57.6856 138.058 58.9466 137.337 60.2622 136.836C59.3091 137.78 58.4305 138.739 57.279 139.43L56.5065 138.819Z"/><path fill="#F79C3B" transform="scale(1.62887 1.62887)" d="M289.125 282.097C288.058 282.034 288.051 282.221 287.427 281.671C287.418 281.615 289.635 274.844 289.821 273.975C290.811 269.333 288.429 253.957 292.156 250.859C297.518 246.402 306.825 234.912 312.196 231.121C312.308 240.866 312.355 250.612 312.337 260.358C312.351 265.136 312.578 270.687 312.028 275.388C311.768 277.605 306.286 282.22 304.552 283.869C303.793 284.059 299.441 282.973 298.122 282.746C295.15 282.25 292.138 282.032 289.125 282.097Z"/><path fill="#F79C3B" transform="scale(1.62887 1.62887)" d="M332.7 391.28C338.255 391.292 349.042 391.66 354.29 391.181C352.987 393.044 349.117 396.578 348.712 398.401C347.867 402.202 348.31 409.045 348.215 413.017C347.968 423.4 348.542 434.401 348.169 444.704L363.613 444.711C365.479 442.804 369.237 434.582 371.441 435.152C372.409 436.55 371.941 440.757 371.74 442.5C371.398 445.329 371.132 448.873 371.013 451.711C358.701 451.478 343.97 451.62 331.596 451.896C334.045 449.222 335.509 448.404 337.693 445.194C338.144 437.647 337.676 428.628 337.783 420.773C337.543 413.152 338.252 405.209 337.355 397.655C337.134 395.791 333.55 393.313 332.7 391.28Z"/><path fill="#F79C3B" transform="scale(1.62887 1.62887)" d="M211.32 42.7253C212.231 41.5058 213.744 39.0814 215.148 38.8694C215.68 39.8213 214.202 42.6417 213.628 43.5773C213.286 44.9561 209.437 51.5774 208.491 53.2189C201.849 64.7436 191.567 74.0087 179.704 79.9588C173.247 83.1975 168.644 85.1658 162.535 89.3347C161.694 87.1323 161.418 84.9232 160.676 82.5899C157.33 79.998 156.96 79.1655 155.085 75.363C160.988 73.3822 166.989 71.8348 172.869 69.8482C188.329 64.6251 200.641 54.9089 211.32 42.7253Z"/><path fill="#FE9D1E" transform="scale(1.62887 1.62887)" d="M211.32 42.7253C212.231 41.5058 213.744 39.0814 215.148 38.8694C215.68 39.8213 214.202 42.6417 213.628 43.5773L213.456 42.8739C213.782 42.1405 213.901 41.9514 213.591 41.2504C212.184 41.803 213.1 42.3815 211.32 42.7253Z"/><path fill="#F79C3B" transform="scale(1.62887 1.62887)" d="M283.256 261.781C284.266 261.669 285.676 261.741 286.723 261.761C287.016 264.475 288.083 270.515 287.359 272.85C283.982 283.746 276.383 291.803 267.119 297.796C265.923 298.561 264.976 298.975 263.7 299.564C270.071 285.359 272.051 280.873 271.968 264.663C276.409 263.427 278.702 262.601 283.256 261.781Z"/><path transform="scale(1.62887 1.62887)" d="M136.069 254.848C139.334 256.195 141.029 256.95 143.997 258.93L143.753 259.831C140.905 258.407 139.006 257.217 135.955 255.926C133.415 257.127 130.769 259.261 127.98 260.7C124.78 259.996 114.863 259.23 111.452 259.184C112.765 258.434 113.327 258.817 114.753 258.534L114.652 257.883C119.456 258.053 122.965 259.022 127.406 259.367C130.352 257.927 133.108 256.098 136.069 254.848Z"/><path transform="scale(1.62887 1.62887)" d="M143.383 216.583C144.167 217.971 144.475 228.773 147.054 229.339C151.26 230.264 155.543 232.092 157.389 236.482L157.013 236.826C152.785 232.607 152.004 231.501 146.286 230.043C143.804 229.41 143.456 222.844 142.601 220.071C142.987 218.856 143.189 217.841 143.383 216.583Z"/><path transform="scale(1.62887 1.62887)" d="M289.125 282.097C292.138 282.032 295.15 282.25 298.122 282.746C299.441 282.973 303.793 284.059 304.552 283.869L305.556 283.965C302.298 285.684 294.953 283.627 291.094 283.677C289.697 283.695 287.734 283.506 286.272 283.448C287.684 282.856 287.399 282.544 289.125 282.097Z"/><path transform="scale(1.62887 1.62887)" d="M198.835 171.926C198.648 169.948 198.662 166.044 198.609 163.947C199.595 166.104 199.766 168.184 200.119 170.514L199.325 169.825C198.692 170.496 199.546 170.799 198.835 171.926Z"/></svg>